<?xml version="1.0" standalone="no"?>
<!DOCTYPE svg PUBLIC "-//W3C//DTD SVG 20010904//EN"
 "http://www.w3.org/TR/2001/REC-SVG-20010904/DTD/svg10.dtd">
<svg version="1.0" xmlns="http://www.w3.org/2000/svg"
 width="545.000000pt" height="545.000000pt" viewBox="0 0 545.000000 545.000000"
 preserveAspectRatio="xMidYMid meet">
<metadata>
Created by potrace 1.14, written by Peter Selinger 2001-2017
</metadata>
<g transform="translate(0.000000,545.000000) scale(0.100000,-0.100000)"
fill="#000000" stroke="none">
<path d="M433 3763 c3 -1508 6 -1792 21 -1883 2 -14 7 -47 11 -75 4 -27 9 -53
11 -56 2 -3 10 -41 19 -83 47 -228 166 -498 316 -716 32 -47 66 -94 76 -105
10 -11 31 -38 47 -59 25 -34 182 -193 241 -245 62 -55 260 -201 272 -201 4 0
14 -6 22 -14 40 -35 263 -141 421 -201 86 -32 295 -86 390 -99 192 -27 706
-28 870 -1 78 13 103 18 180 36 90 21 225 63 275 85 17 7 59 25 95 39 97 40
210 100 310 165 65 42 178 125 192 141 9 10 19 19 23 19 15 0 165 147 250 245
233 269 400 597 471 930 13 60 34 176 39 215 3 25 9 68 12 95 4 28 8 816 10
1753 l4 1702 -2291 0 -2290 0 3 -1687z"/>
</g>
</svg>
